<svg width="19" height="19" viewBox="0 0 19 19" fill="none" xmlns="http://www.w3.org/2000/svg">
<path d="M16.9643 0H2.03571C0.91183 0 0 0.91183 0 2.03571V16.9643C0 18.0882 0.91183 19 2.03571 19H16.9643C18.0882 19 19 18.0882 19 16.9643V2.03571C19 0.91183 18.0882 0 16.9643 0ZM11.7605 16.273C11.4042 16.3366 11.2728 16.1161 11.2728 15.9337C11.2728 15.7047 11.2812 14.5342 11.2812 13.5884C11.2812 12.9268 11.0607 12.5069 10.802 12.2864C12.3712 12.1125 14.0252 11.8962 14.0252 9.18616C14.0252 8.41429 13.7496 8.02835 13.3 7.53214C13.3721 7.34978 13.6138 6.59911 13.2279 5.62366C12.6384 5.44129 11.2897 6.38281 11.2897 6.38281C10.7299 6.22589 10.1234 6.14531 9.52545 6.14531C8.92746 6.14531 8.32098 6.22589 7.76116 6.38281C7.76116 6.38281 6.4125 5.44129 5.82299 5.62366C5.43705 6.59487 5.67455 7.34554 5.75089 7.53214C5.30134 8.02835 5.08929 8.41429 5.08929 9.18616C5.08929 11.8835 6.67121 12.1125 8.2404 12.2864C8.03683 12.4688 7.85446 12.7826 7.79085 13.2321C7.38795 13.4145 6.35737 13.7283 5.74241 12.6426C5.35647 11.9725 4.66094 11.9174 4.66094 11.9174C3.97388 11.9089 4.61429 12.35 4.61429 12.35C5.07232 12.5621 5.39464 13.3763 5.39464 13.3763C5.80603 14.6359 7.77388 14.2118 7.77388 14.2118C7.77388 14.8013 7.78237 15.7598 7.78237 15.9337C7.78237 16.1161 7.65513 16.3366 7.29464 16.273C4.49554 15.3357 2.53616 12.6723 2.53616 9.55937C2.53616 5.66607 5.51339 2.71004 9.4067 2.71004C13.3 2.71004 16.4554 5.66607 16.4554 9.55937C16.4596 12.6723 14.5596 15.34 11.7605 16.273ZM7.6 13.6817C7.51942 13.6987 7.44308 13.6647 7.4346 13.6096C7.42612 13.546 7.48125 13.4908 7.56183 13.4739C7.64241 13.4654 7.71875 13.4993 7.72723 13.5545C7.73995 13.6096 7.68482 13.6647 7.6 13.6817ZM7.1971 13.6435C7.1971 13.6987 7.13348 13.7453 7.04866 13.7453C6.95536 13.7538 6.89174 13.7071 6.89174 13.6435C6.89174 13.5884 6.95536 13.5417 7.04018 13.5417C7.12076 13.5333 7.1971 13.5799 7.1971 13.6435ZM6.61607 13.5969C6.59911 13.652 6.51429 13.6775 6.44219 13.652C6.36161 13.635 6.30647 13.5714 6.32344 13.5163C6.3404 13.4612 6.42522 13.4357 6.49732 13.4527C6.58214 13.4781 6.63728 13.5417 6.61607 13.5969ZM6.09442 13.3679C6.05625 13.4145 5.97567 13.406 5.91205 13.3424C5.84844 13.2873 5.83147 13.2067 5.87388 13.1685C5.91205 13.1219 5.99263 13.1304 6.05625 13.194C6.11138 13.2491 6.13259 13.3339 6.09442 13.3679ZM5.70848 12.9819C5.67031 13.0074 5.59821 12.9819 5.55156 12.9183C5.50491 12.8547 5.50491 12.7826 5.55156 12.7529C5.59821 12.7147 5.67031 12.7444 5.70848 12.808C5.75513 12.8717 5.75513 12.948 5.70848 12.9819V12.9819ZM5.43281 12.5705C5.39464 12.6087 5.33103 12.5875 5.28437 12.5451C5.23772 12.49 5.22924 12.4263 5.26741 12.3967C5.30558 12.3585 5.3692 12.3797 5.41585 12.4221C5.4625 12.4772 5.47098 12.5408 5.43281 12.5705ZM5.14866 12.2567C5.1317 12.2949 5.07656 12.3033 5.02991 12.2737C4.97478 12.2482 4.94933 12.2016 4.96629 12.1634C4.98326 12.1379 5.02991 12.1252 5.08504 12.1464C5.14018 12.1761 5.16562 12.2228 5.14866 12.2567Z" fill="#6D6069"/>
</svg>
