<svg width="20" height="20" viewBox="0 0 20 20" fill="none" xmlns="http://www.w3.org/2000/svg">
<path d="M10.0183 1.62584e-05C12.6905 0.00481464 15.1166 1.0578 16.9078 2.76957L18.3479 1.32945C18.9576 0.719814 20 1.15159 20 2.01376V7.41936C20 7.95384 19.5667 8.38711 19.0323 8.38711H13.6267C12.7645 8.38711 12.3327 7.34473 12.9423 6.73505L14.6258 5.05159C13.3813 3.8863 11.7709 3.24082 10.0601 3.22606C6.33435 3.19388 3.19383 6.209 3.22605 10.0584C3.25661 13.71 6.2171 16.7742 10 16.7742C11.6583 16.7742 13.2257 16.1823 14.4608 15.0986C14.6521 14.9308 14.9409 14.941 15.1208 15.1209L16.7201 16.7201C16.9166 16.9166 16.9069 17.2369 16.7007 17.4231C14.9275 19.0247 12.5777 20 10 20C4.47718 20 4.03229e-05 15.5229 2.70869e-10 10.0001C-4.03223e-05 4.4836 4.50185 -0.00986277 10.0183 1.62584e-05Z" fill="#6D6069"/>
</svg>
